<svg width="1221" height="366" viewBox="0 0 1221 366" fill="none" xmlns="http://www.w3.org/2000/svg">
<rect x="422" y="172" width="292" height="110" fill="black"/>
<path d="M1187.33 266H1220.67V299.333H1187.33V266ZM1187.33 199.333H1220.67V232.667H1187.33V199.333ZM1220.67 332.667H1187.33V366C1204 366 1220.67 349.333 1220.67 332.667ZM1054 66H1087.33V99.3333H1054V66ZM1187.33 132.667H1220.67V166H1187.33V132.667ZM1187.33 66V99.3333H1220.67C1220.67 82.6667 1204 66 1187.33 66ZM854 132.667H887.333V166H854V132.667ZM1120.67 66H1154V99.3333H1120.67V66ZM1120.67 332.667H1154V366H1120.67V332.667ZM887.333 66C870.667 66 854 82.6667 854 99.3333H887.333V66ZM987.333 66H1020.67V99.3333H987.333V66ZM920.667 66H954V99.3333H920.667V66ZM854 199.333V332.667C854 351 869 366 887.333 366H1087.33V199.333H854ZM887.333 332.667L929 279.167L958.833 315L1000.5 261.333L1054 332.667H887.333Z" fill="#FF0000"/>
<path d="M500.674 230.752C501.101 231.947 501.399 233.312 501.57 234.848C501.826 236.299 501.954 237.792 501.954 239.328C501.954 240.864 501.826 242.4 501.57 243.936C501.399 245.387 501.143 246.667 500.802 247.776C499.437 252.555 496.706 256.565 492.61 259.808C488.514 262.965 483.821 265.269 478.53 266.72C473.325 268.171 467.906 268.683 462.274 268.256C456.727 267.829 451.778 266.421 447.426 264.032C444.695 262.496 442.349 260.619 440.386 258.4C438.423 256.181 436.759 253.707 435.394 250.976C434.882 250.037 434.541 248.971 434.37 247.776C434.285 246.496 434.413 245.301 434.754 244.192C435.095 242.997 435.65 241.973 436.418 241.12C437.186 240.181 438.253 239.541 439.618 239.2C440.471 239.029 441.41 238.944 442.434 238.944C443.543 238.944 444.61 239.115 445.634 239.456C446.658 239.712 447.597 240.181 448.45 240.864C449.303 241.461 449.986 242.315 450.498 243.424C451.437 245.216 452.759 246.88 454.466 248.416C456.258 249.867 458.135 251.061 460.098 252C462.914 252.939 465.73 253.323 468.546 253.152C471.447 252.981 474.05 252.341 476.354 251.232C478.743 250.123 480.663 248.629 482.114 246.752C483.565 244.789 484.29 242.571 484.29 240.096C484.29 238.048 483.991 236.384 483.394 235.104C482.797 233.739 481.943 232.629 480.834 231.776C479.81 230.837 478.53 230.069 476.994 229.472C475.543 228.875 473.922 228.363 472.13 227.936C470.082 227.509 467.991 227.211 465.858 227.04C463.81 226.869 461.719 226.656 459.586 226.4C457.453 226.144 455.362 225.803 453.314 225.376C451.266 224.949 449.261 224.309 447.298 223.456C443.373 221.835 440.386 219.36 438.338 216.032C436.29 212.704 435.053 209.12 434.626 205.28C434.285 201.44 434.754 197.643 436.034 193.888C437.314 190.048 439.362 186.763 442.178 184.032C444.909 181.557 448.151 179.808 451.906 178.784C455.746 177.675 459.97 177.035 464.578 176.864C467.138 176.779 469.698 176.864 472.258 177.12C474.903 177.376 477.421 177.803 479.81 178.4C482.285 178.997 484.546 179.765 486.594 180.704C488.727 181.643 490.562 182.752 492.098 184.032C493.207 184.885 494.317 186.037 495.426 187.488C496.535 188.853 497.389 190.347 497.986 191.968C498.583 193.504 498.754 194.997 498.498 196.448C498.327 197.899 497.431 199.136 495.81 200.16C494.445 201.013 493.122 201.397 491.842 201.312C490.647 201.141 489.495 200.757 488.386 200.16C487.277 199.477 486.21 198.709 485.186 197.856C484.162 197.003 483.223 196.235 482.37 195.552C480.066 193.845 477.207 192.693 473.794 192.096C470.381 191.499 467.181 191.371 464.194 191.712C462.317 191.968 460.567 192.395 458.946 192.992C457.325 193.589 455.917 194.4 454.722 195.424C453.613 196.448 452.717 197.728 452.034 199.264C451.437 200.715 451.223 202.379 451.394 204.256C451.479 205.621 451.863 206.773 452.546 207.712C453.314 208.651 454.21 209.419 455.234 210.016C456.343 210.613 457.538 211.083 458.818 211.424C460.098 211.765 461.378 212.021 462.658 212.192C466.498 212.704 470.338 213.088 474.178 213.344C478.018 213.6 481.773 214.453 485.442 215.904C489.197 217.355 492.397 219.317 495.042 221.792C497.687 224.267 499.565 227.253 500.674 230.752ZM527.221 214.112C529.781 212.832 532.469 211.936 535.285 211.424C538.101 210.827 540.874 210.699 543.605 211.04C546.421 211.296 549.109 212.021 551.669 213.216C554.229 214.325 556.618 215.947 558.837 218.08C561.056 220.299 562.762 222.731 563.957 225.376C565.152 228.021 566.005 230.965 566.517 234.208C566.858 236.427 567.413 238.475 568.181 240.352C568.949 242.229 569.76 244.107 570.613 245.984C571.552 247.861 572.405 249.739 573.173 251.616C574.026 253.493 574.709 255.456 575.221 257.504C575.648 259.467 575.477 261.387 574.709 263.264C574.026 265.056 572.576 266.165 570.357 266.592C569.077 266.848 567.84 266.763 566.645 266.336C565.536 265.824 564.512 265.141 563.573 264.288C562.634 263.349 561.781 262.368 561.013 261.344C560.33 260.235 559.69 259.211 559.093 258.272C557.13 260.832 554.997 262.837 552.693 264.288C550.389 265.653 547.616 266.549 544.373 266.976C541.642 267.317 539.04 267.403 536.565 267.232C534.09 267.061 531.445 266.592 528.629 265.824C524.96 264.885 521.93 263.264 519.541 260.96C517.237 258.571 515.445 255.84 514.165 252.768C512.97 249.611 512.33 246.24 512.245 242.656C512.16 239.072 512.586 235.531 513.525 232.032C514.72 227.424 516.512 223.669 518.901 220.768C521.29 217.867 524.064 215.648 527.221 214.112ZM530.421 229.088C529.226 230.283 528.288 231.691 527.605 233.312C526.922 234.933 526.496 236.64 526.325 238.432C526.24 240.224 526.41 242.016 526.837 243.808C527.264 245.6 527.946 247.179 528.885 248.544C529.738 249.739 531.189 250.763 533.237 251.616C535.285 252.384 537.418 252.853 539.637 253.024C542.197 253.195 544.416 252.512 546.293 250.976C548.256 249.44 549.706 247.52 550.645 245.216C551.669 242.827 552.138 240.309 552.053 237.664C551.968 234.933 551.242 232.459 549.877 230.24C548.853 228.619 547.488 227.424 545.781 226.656C544.16 225.888 542.41 225.504 540.533 225.504C538.656 225.419 536.778 225.717 534.901 226.4C533.109 226.997 531.616 227.893 530.421 229.088ZM635.205 211.936C635.546 212.96 635.632 214.112 635.461 215.392C635.29 216.672 634.992 217.995 634.565 219.36C634.138 220.64 633.626 221.92 633.029 223.2C632.517 224.395 632.048 225.461 631.621 226.4C629.402 230.923 627.312 235.36 625.349 239.712C623.386 244.064 621.082 248.8 618.437 253.92C617.925 254.944 617.328 256.181 616.645 257.632C616.048 258.997 615.365 260.363 614.597 261.728C613.829 263.008 612.976 264.203 612.037 265.312C611.184 266.421 610.245 267.232 609.221 267.744C608.368 268.256 607.514 268.469 606.661 268.384C605.978 268.555 605.21 268.341 604.357 267.744C603.333 267.232 602.352 266.421 601.413 265.312C600.56 264.203 599.749 263.008 598.981 261.728C598.213 260.363 597.488 258.997 596.805 257.632C596.208 256.181 595.653 254.944 595.141 253.92C594.117 251.957 593.136 250.123 592.197 248.416C591.344 246.709 590.405 244.875 589.381 242.912C588.442 240.864 587.376 238.56 586.181 236C584.986 233.355 583.578 230.155 581.957 226.4C581.53 225.376 581.061 224.309 580.549 223.2C580.037 222.091 579.568 220.896 579.141 219.616C578.8 218.336 578.544 217.056 578.373 215.776C578.288 214.411 578.373 213.045 578.629 211.68C578.885 210.4 579.525 209.376 580.549 208.608C581.573 207.84 582.725 207.328 584.005 207.072C585.285 206.816 586.565 206.859 587.845 207.2C589.125 207.456 590.149 208.011 590.917 208.864C591.685 209.632 592.41 210.656 593.093 211.936C593.776 213.216 594.416 214.581 595.013 216.032C595.696 217.397 596.293 218.805 596.805 220.256C597.402 221.621 597.957 222.816 598.469 223.84C599.664 226.315 600.986 229.003 602.437 231.904C603.973 234.805 605.338 237.493 606.533 239.968C607.386 238.005 608.154 236.384 608.837 235.104C609.52 233.739 610.16 232.416 610.757 231.136C611.44 229.856 612.122 228.448 612.805 226.912C613.573 225.376 614.512 223.413 615.621 221.024C616.645 218.805 617.669 216.629 618.693 214.496C619.802 212.363 621.125 210.485 622.661 208.864C623.429 208.011 624.41 207.456 625.605 207.2C626.8 206.859 628.037 206.816 629.317 207.072C630.597 207.328 631.749 207.883 632.773 208.736C633.882 209.504 634.693 210.571 635.205 211.936ZM686.283 250.464C687.307 250.208 688.331 250.037 689.355 249.952C690.464 249.867 691.446 249.995 692.299 250.336C693.238 250.677 694.006 251.275 694.603 252.128C695.2 252.896 695.499 254.005 695.499 255.456C695.499 256.48 695.243 257.461 694.731 258.4C694.219 259.339 693.579 260.192 692.811 260.96C692.043 261.728 691.19 262.411 690.251 263.008C689.312 263.52 688.416 263.947 687.563 264.288C685.088 265.397 682.23 266.251 678.987 266.848C675.83 267.445 672.544 267.659 669.131 267.488C664.523 267.317 660.086 266.421 655.819 264.8C651.638 263.093 648.352 260.32 645.963 256.48C643.744 252.725 642.422 248.544 641.995 243.936C641.568 239.328 641.782 234.976 642.635 230.88C643.574 225.931 645.152 221.92 647.371 218.848C649.675 215.691 652.406 213.173 655.563 211.296C659.403 209.077 663.712 207.925 668.491 207.84C673.27 207.755 677.835 208.693 682.187 210.656C685.088 211.936 687.691 213.685 689.995 215.904C692.299 218.037 694.048 220.64 695.243 223.712C695.584 224.48 695.84 225.419 696.011 226.528C696.267 227.637 696.438 228.832 696.523 230.112C696.608 231.307 696.608 232.501 696.523 233.696C696.438 234.891 696.224 235.957 695.883 236.896C695.371 238.432 694.731 239.627 693.963 240.48C693.195 241.333 692.214 241.973 691.019 242.4C689.824 242.827 688.374 243.125 686.667 243.296C685.046 243.381 683.083 243.467 680.779 243.552C678.731 243.637 676.811 243.68 675.019 243.68C673.227 243.68 671.392 243.68 669.515 243.68C667.638 243.595 665.675 243.552 663.627 243.552C661.664 243.467 659.446 243.381 656.971 243.296C656.715 245.003 656.928 246.496 657.611 247.776C658.379 248.971 659.403 249.995 660.683 250.848C661.963 251.616 663.414 252.213 665.035 252.64C666.656 253.067 668.235 253.323 669.771 253.408C672.672 253.579 675.446 253.365 678.091 252.768C680.736 252.085 683.467 251.317 686.283 250.464ZM680.779 225.632C679.158 223.755 677.451 222.389 675.659 221.536C674.294 220.939 672.843 220.683 671.307 220.768C669.856 220.768 668.448 220.981 667.083 221.408C664.608 222.005 662.518 223.285 660.811 225.248C660.64 225.419 660.342 225.845 659.915 226.528C659.488 227.125 659.062 227.765 658.635 228.448C658.294 229.131 658.038 229.771 657.867 230.368C657.696 230.965 657.782 231.264 658.123 231.264H683.211C683.126 230.069 682.912 229.088 682.571 228.32C682.23 227.467 681.632 226.571 680.779 225.632Z" fill="#FF0000"/>
<path d="M753.213 254.432L753.341 244.32L753.469 225.504C753.554 222.773 753.597 219.957 753.597 217.056C753.597 214.155 753.597 211.168 753.597 208.096C753.597 205.024 753.597 202.293 753.597 199.904C753.597 197.515 753.682 194.827 753.853 191.84V191.328C753.938 190.475 753.981 189.621 753.981 188.768C754.066 187.829 754.109 186.891 754.109 185.952C754.194 184.416 754.664 182.752 755.517 180.96C756.114 179.765 757.01 178.741 758.205 177.888C759.57 177.205 760.893 176.864 762.173 176.864C762.856 176.864 763.453 176.907 763.965 176.992C764.562 176.992 765.117 177.035 765.629 177.12C766.738 177.291 767.72 177.803 768.573 178.656C769.085 179.083 769.554 179.765 769.981 180.704C770.152 181.216 770.28 181.728 770.365 182.24C770.536 182.667 770.664 183.136 770.749 183.648C770.834 184.245 770.877 184.8 770.877 185.312C770.962 185.824 771.005 186.336 771.005 186.848C771.005 187.445 770.962 188 770.877 188.512C770.877 188.939 770.877 189.408 770.877 189.92V192.096L770.109 258.528V259.808C770.109 260.064 770.066 260.405 769.981 260.832C769.981 261.173 769.938 261.6 769.853 262.112C769.682 262.539 769.512 263.008 769.341 263.52C769.256 263.947 769.128 264.416 768.957 264.928C768.701 265.355 768.402 265.781 768.061 266.208C767.805 266.549 767.464 266.891 767.037 267.232C766.354 267.915 765.245 268.384 763.709 268.64C761.405 269.152 759.229 268.939 757.181 268C756.157 267.317 755.432 266.464 755.005 265.44C754.749 265.184 754.621 264.928 754.621 264.672C754.536 264.501 754.45 264.373 754.365 264.288C754.28 264.203 754.194 264.075 754.109 263.904C753.938 263.477 753.81 263.051 753.725 262.624C753.64 262.112 753.597 261.6 753.597 261.088C753.512 260.661 753.426 260.235 753.341 259.808C753.341 259.381 753.298 258.955 753.213 258.528C753.128 257.845 753.128 257.12 753.213 256.352V254.432ZM854.496 238.176C854.667 240.907 854.752 243.509 854.752 245.984C854.752 248.373 854.667 250.933 854.496 253.664C854.496 254.688 854.496 255.84 854.496 257.12C854.496 258.4 854.411 259.637 854.24 260.832C854.069 262.027 853.771 263.136 853.344 264.16C852.917 265.184 852.277 265.995 851.424 266.592C850.4 267.275 849.248 267.744 847.968 268C846.688 268.171 845.493 268.085 844.384 267.744C843.275 267.403 842.293 266.763 841.44 265.824C840.672 264.885 840.245 263.563 840.16 261.856C839.904 257.931 839.776 254.005 839.776 250.08C839.776 248.117 839.733 246.24 839.648 244.448C839.648 242.656 839.691 240.139 839.776 236.896C839.776 235.275 839.648 233.44 839.392 231.392C839.136 229.259 838.496 227.765 837.472 226.912C836.704 226.229 835.851 225.845 834.912 225.76C833.973 225.589 833.035 225.675 832.096 226.016C831.243 226.357 830.475 226.997 829.792 227.936C829.109 228.789 828.64 229.899 828.384 231.264C828.384 232.373 828.341 233.525 828.256 234.72C828.256 235.829 828.299 236.896 828.384 237.92C828.469 240.651 828.512 243.253 828.512 245.728C828.512 248.117 828.469 250.677 828.384 253.408C828.299 254.517 828.256 255.712 828.256 256.992C828.341 258.272 828.341 259.552 828.256 260.832C828.171 262.027 827.915 263.136 827.488 264.16C827.147 265.184 826.507 265.995 825.568 266.592C824.544 267.275 823.435 267.701 822.24 267.872C821.131 267.957 820.064 267.787 819.04 267.36C818.101 266.848 817.248 266.08 816.48 265.056C815.797 264.032 815.413 262.667 815.328 260.96C815.157 258.997 815.029 257.205 814.944 255.584C814.944 253.877 814.944 252.085 814.944 250.208C814.944 248.245 814.987 246.24 815.072 244.192C815.157 242.059 815.115 240.011 814.944 238.048C814.944 237.451 814.901 236.768 814.816 236C814.816 235.147 814.773 234.293 814.688 233.44C814.688 232.587 814.603 231.776 814.432 231.008C814.347 230.155 814.176 229.472 813.92 228.96C813.237 227.765 812 226.997 810.208 226.656C808.501 226.315 807.051 226.443 805.856 227.04C804.661 227.637 803.765 228.405 803.168 229.344C802.571 230.283 802.144 231.307 801.888 232.416C801.632 233.525 801.504 234.72 801.504 236C801.504 237.195 801.504 238.347 801.504 239.456C801.504 245.003 801.504 249.824 801.504 253.92C801.589 257.931 801.163 261.173 800.224 263.648C799.797 264.928 798.901 265.909 797.536 266.592C796.256 267.275 794.848 267.616 793.312 267.616C791.861 267.616 790.496 267.275 789.216 266.592C787.936 265.909 787.083 264.843 786.656 263.392C786.4 262.453 786.144 261.131 785.888 259.424C785.717 257.632 785.589 255.669 785.504 253.536C785.419 251.403 785.376 249.269 785.376 247.136C785.376 244.917 785.376 242.912 785.376 241.12V222.688C785.291 220.725 785.248 218.592 785.248 216.288C785.248 213.984 785.589 211.893 786.272 210.016C786.869 208.395 787.808 207.371 789.088 206.944C790.368 206.432 791.691 206.219 793.056 206.304C794.592 206.304 795.787 206.731 796.64 207.584C797.579 208.352 798.261 209.333 798.688 210.528C799.115 211.637 799.371 212.917 799.456 214.368C799.541 215.733 799.627 217.056 799.712 218.336C800.651 216.203 801.76 214.453 803.04 213.088C804.405 211.637 806.325 210.699 808.8 210.272C815.115 209.077 820.149 210.699 823.904 215.136C825.611 213.429 827.787 212.021 830.432 210.912C832.48 210.144 834.571 209.803 836.704 209.888C838.837 209.888 840.843 210.272 842.72 211.04C844.683 211.808 846.432 212.917 847.968 214.368C849.589 215.819 850.869 217.568 851.808 219.616C853.088 222.347 853.813 225.376 853.984 228.704C854.155 232.032 854.325 235.189 854.496 238.176ZM879.971 214.112C882.531 212.832 885.219 211.936 888.035 211.424C890.851 210.827 893.624 210.699 896.355 211.04C899.171 211.296 901.859 212.021 904.419 213.216C906.979 214.325 909.368 215.947 911.587 218.08C913.806 220.299 915.512 222.731 916.707 225.376C917.902 228.021 918.755 230.965 919.267 234.208C919.608 236.427 920.163 238.475 920.931 240.352C921.699 242.229 922.51 244.107 923.363 245.984C924.302 247.861 925.155 249.739 925.923 251.616C926.776 253.493 927.459 255.456 927.971 257.504C928.398 259.467 928.227 261.387 927.459 263.264C926.776 265.056 925.326 266.165 923.107 266.592C921.827 266.848 920.59 266.763 919.395 266.336C918.286 265.824 917.262 265.141 916.323 264.288C915.384 263.349 914.531 262.368 913.763 261.344C913.08 260.235 912.44 259.211 911.843 258.272C909.88 260.832 907.747 262.837 905.443 264.288C903.139 265.653 900.366 266.549 897.123 266.976C894.392 267.317 891.79 267.403 889.315 267.232C886.84 267.061 884.195 266.592 881.379 265.824C877.71 264.885 874.68 263.264 872.291 260.96C869.987 258.571 868.195 255.84 866.915 252.768C865.72 249.611 865.08 246.24 864.995 242.656C864.91 239.072 865.336 235.531 866.275 232.032C867.47 227.424 869.262 223.669 871.651 220.768C874.04 217.867 876.814 215.648 879.971 214.112ZM883.171 229.088C881.976 230.283 881.038 231.691 880.355 233.312C879.672 234.933 879.246 236.64 879.075 238.432C878.99 240.224 879.16 242.016 879.587 243.808C880.014 245.6 880.696 247.179 881.635 248.544C882.488 249.739 883.939 250.763 885.987 251.616C888.035 252.384 890.168 252.853 892.387 253.024C894.947 253.195 897.166 252.512 899.043 250.976C901.006 249.44 902.456 247.52 903.395 245.216C904.419 242.827 904.888 240.309 904.803 237.664C904.718 234.933 903.992 232.459 902.627 230.24C901.603 228.619 900.238 227.424 898.531 226.656C896.91 225.888 895.16 225.504 893.283 225.504C891.406 225.419 889.528 225.717 887.651 226.4C885.859 226.997 884.366 227.893 883.171 229.088ZM991.74 243.808C991.74 246.539 991.655 249.483 991.484 252.64C991.399 255.797 991.271 258.741 991.1 261.472C991.1 264.032 990.972 266.592 990.716 269.152C990.545 271.371 990.204 273.76 989.692 276.32C989.18 278.965 988.455 281.397 987.516 283.616C986.321 286.517 984.7 288.992 982.652 291.04C980.604 293.173 977.959 294.709 974.716 295.648C971.985 296.331 969.425 296.757 967.036 296.928C964.647 297.184 962.087 297.141 959.356 296.8C957.564 296.544 955.644 296.032 953.596 295.264C951.548 294.581 949.628 293.685 947.836 292.576C946.044 291.467 944.465 290.144 943.1 288.608C941.735 287.157 940.796 285.493 940.284 283.616C939.687 281.312 939.644 279.307 940.156 277.6C940.753 275.893 941.649 274.656 942.844 273.888C944.039 273.12 945.447 272.992 947.068 273.504C948.689 274.016 950.225 275.339 951.676 277.472C952.7 279.008 954.193 280.245 956.156 281.184C958.119 282.123 960.209 282.677 962.428 282.848C964.647 283.019 966.78 282.72 968.828 281.952C970.961 281.269 972.625 280.032 973.82 278.24C974.673 276.96 975.271 275.125 975.612 272.736C976.039 270.347 976.295 268 976.38 265.696C972.028 267.488 967.548 268.171 962.94 267.744C958.417 267.232 954.279 265.824 950.524 263.52C946.855 261.131 943.868 257.973 941.564 254.048C939.345 250.037 938.407 245.515 938.748 240.48C939.004 236.128 939.9 232.032 941.436 228.192C943.057 224.352 945.703 221.152 949.372 218.592C952.359 216.544 955.729 215.221 959.484 214.624C963.239 213.941 966.865 213.6 970.364 213.6C972.412 213.6 974.417 213.6 976.38 213.6C978.428 213.6 980.305 213.856 982.012 214.368C983.719 214.88 985.255 215.733 986.62 216.928C987.985 218.123 989.009 219.872 989.692 222.176C990.801 225.76 991.399 229.301 991.484 232.8C991.655 236.299 991.74 239.968 991.74 243.808ZM967.036 254.432C967.889 254.432 968.7 254.347 969.468 254.176C970.321 254.005 971.132 253.792 971.9 253.536C973.351 253.024 974.417 252.341 975.1 251.488C975.868 250.635 976.38 249.696 976.636 248.672C976.892 247.563 976.977 246.368 976.892 245.088C976.892 243.808 976.892 242.485 976.892 241.12C976.892 240.011 976.849 238.773 976.764 237.408C976.764 236.043 976.679 234.763 976.508 233.568C976.337 232.288 976.081 231.179 975.74 230.24C975.399 229.301 974.887 228.704 974.204 228.448C973.009 228.107 971.644 227.893 970.108 227.808C968.572 227.637 967.036 227.637 965.5 227.808C963.964 227.893 962.471 228.192 961.02 228.704C959.655 229.131 958.503 229.728 957.564 230.496C956.284 231.605 955.303 232.971 954.62 234.592C953.937 236.213 953.511 237.92 953.34 239.712C953.255 241.504 953.383 243.253 953.724 244.96C954.151 246.667 954.876 248.203 955.9 249.568C957.095 251.275 958.716 252.512 960.764 253.28C962.812 254.048 964.903 254.432 967.036 254.432ZM1046.41 250.464C1047.43 250.208 1048.46 250.037 1049.48 249.952C1050.59 249.867 1051.57 249.995 1052.42 250.336C1053.36 250.677 1054.13 251.275 1054.73 252.128C1055.33 252.896 1055.62 254.005 1055.62 255.456C1055.62 256.48 1055.37 257.461 1054.86 258.4C1054.34 259.339 1053.7 260.192 1052.94 260.96C1052.17 261.728 1051.31 262.411 1050.38 263.008C1049.44 263.52 1048.54 263.947 1047.69 264.288C1045.21 265.397 1042.35 266.251 1039.11 266.848C1035.95 267.445 1032.67 267.659 1029.26 267.488C1024.65 267.317 1020.21 266.421 1015.94 264.8C1011.76 263.093 1008.48 260.32 1006.09 256.48C1003.87 252.725 1002.55 248.544 1002.12 243.936C1001.69 239.328 1001.91 234.976 1002.76 230.88C1003.7 225.931 1005.28 221.92 1007.5 218.848C1009.8 215.691 1012.53 213.173 1015.69 211.296C1019.53 209.077 1023.84 207.925 1028.62 207.84C1033.39 207.755 1037.96 208.693 1042.31 210.656C1045.21 211.936 1047.82 213.685 1050.12 215.904C1052.42 218.037 1054.17 220.64 1055.37 223.712C1055.71 224.48 1055.97 225.419 1056.14 226.528C1056.39 227.637 1056.56 228.832 1056.65 230.112C1056.73 231.307 1056.73 232.501 1056.65 233.696C1056.56 234.891 1056.35 235.957 1056.01 236.896C1055.5 238.432 1054.86 239.627 1054.09 240.48C1053.32 241.333 1052.34 241.973 1051.14 242.4C1049.95 242.827 1048.5 243.125 1046.79 243.296C1045.17 243.381 1043.21 243.467 1040.9 243.552C1038.86 243.637 1036.94 243.68 1035.14 243.68C1033.35 243.68 1031.52 243.68 1029.64 243.68C1027.76 243.595 1025.8 243.552 1023.75 243.552C1021.79 243.467 1019.57 243.381 1017.1 243.296C1016.84 245.003 1017.05 246.496 1017.74 247.776C1018.5 248.971 1019.53 249.995 1020.81 250.848C1022.09 251.616 1023.54 252.213 1025.16 252.64C1026.78 253.067 1028.36 253.323 1029.9 253.408C1032.8 253.579 1035.57 253.365 1038.22 252.768C1040.86 252.085 1043.59 251.317 1046.41 250.464ZM1040.9 225.632C1039.28 223.755 1037.58 222.389 1035.78 221.536C1034.42 220.939 1032.97 220.683 1031.43 220.768C1029.98 220.768 1028.57 220.981 1027.21 221.408C1024.73 222.005 1022.64 223.285 1020.94 225.248C1020.77 225.419 1020.47 225.845 1020.04 226.528C1019.61 227.125 1019.19 227.765 1018.76 228.448C1018.42 229.131 1018.16 229.771 1017.99 230.368C1017.82 230.965 1017.91 231.264 1018.25 231.264H1043.34C1043.25 230.069 1043.04 229.088 1042.7 228.32C1042.35 227.467 1041.76 226.571 1040.9 225.632Z" fill="black"/>
<path d="M166 131.5H572" stroke="black" stroke-width="5"/>
<path d="M0 282H406" stroke="#FF0000" stroke-width="5"/>
<path d="M240.133 34.416C240.645 38.512 240.944 43.2907 241.029 48.752C241.114 54.128 241.029 59.5893 240.773 65.136C240.602 70.5973 240.218 75.8027 239.621 80.752C239.024 85.616 238.298 89.5413 237.445 92.528C236.848 94.32 236.122 96.1973 235.269 98.16C234.501 100.037 233.648 101.744 232.709 103.28C231.344 105.584 229.68 107.632 227.717 109.424C225.754 111.131 223.578 112.624 221.189 113.904C218.885 115.099 216.41 116.037 213.765 116.72C211.205 117.403 208.645 117.787 206.085 117.872C201.562 118.043 197.253 117.403 193.157 115.952C189.146 114.416 185.434 112.027 182.021 108.784C179.461 106.309 177.413 103.664 175.877 100.848C174.341 98.032 173.146 95.088 172.293 92.016C171.44 88.8587 170.885 85.616 170.629 82.288C170.458 78.96 170.373 75.5467 170.373 72.048C170.373 70.4267 170.33 68.4213 170.245 66.032C170.245 63.5573 170.245 61.04 170.245 58.48C170.245 55.8347 170.245 53.2747 170.245 50.8C170.245 48.3253 170.288 46.2347 170.373 44.528C170.373 43.4187 170.373 42.224 170.373 40.944C170.373 39.5787 170.416 38.256 170.501 36.976C170.672 35.6107 170.928 34.3307 171.269 33.136C171.61 31.856 172.122 30.704 172.805 29.68C173.573 28.5707 174.64 27.76 176.005 27.248C177.37 26.736 178.778 26.48 180.229 26.48C181.765 26.48 183.216 26.7787 184.581 27.376C185.946 27.9733 187.056 28.8267 187.909 29.936C188.336 30.6187 188.634 31.3013 188.805 31.984C188.976 32.6667 189.104 33.4347 189.189 34.288C189.36 37.104 189.445 40.304 189.445 43.888C189.53 47.472 189.53 50.9707 189.445 54.384C189.445 57.712 189.402 60.784 189.317 63.6C189.232 66.416 189.189 68.5067 189.189 69.872C189.189 74.992 189.445 79.6427 189.957 83.824C190.469 87.92 191.664 91.3333 193.541 94.064C195.248 96.5387 197.253 98.1173 199.557 98.8C201.861 99.4827 204.165 99.696 206.469 99.44C208.602 99.184 210.736 98.416 212.869 97.136C215.088 95.7707 216.837 93.808 218.117 91.248C218.629 90.3093 219.056 89.2427 219.397 88.048C219.738 86.8533 219.994 85.744 220.165 84.72C220.506 81.4773 220.805 77.7227 221.061 73.456C221.317 69.104 221.53 64.6667 221.701 60.144C221.872 55.6213 221.957 51.184 221.957 46.832C221.957 42.48 221.914 38.5547 221.829 35.056C222 33.52 222.469 32.112 223.237 30.832C223.92 29.7227 224.901 28.7413 226.181 27.888C227.461 27.0347 229.21 26.608 231.429 26.608C233.221 26.6933 234.672 27.1627 235.781 28.016C236.89 28.784 237.786 29.6373 238.469 30.576C239.237 31.6853 239.792 32.9653 240.133 34.416ZM287.21 60.4C289.685 61.424 291.946 62.9173 293.994 64.88C296.042 66.7573 297.791 68.9333 299.242 71.408C300.778 73.8827 301.93 76.5707 302.698 79.472C303.551 82.288 303.978 85.1467 303.978 88.048C304.063 92.4 303.039 96.496 300.906 100.336C298.858 104.176 295.487 107.12 290.794 109.168C287.21 110.619 283.498 111.728 279.658 112.496C275.903 113.179 271.978 113.648 267.882 113.904V137.328C267.882 137.84 267.797 138.309 267.626 138.736C267.541 139.163 267.498 139.589 267.498 140.016C267.327 140.869 267.114 141.637 266.858 142.32C266.687 143.003 266.431 143.728 266.09 144.496C265.749 145.008 265.407 145.477 265.066 145.904C264.725 146.331 264.341 146.757 263.914 147.184C261.866 148.208 259.733 148.421 257.514 147.824C256.149 147.739 255.039 147.312 254.186 146.544C253.418 145.776 252.863 144.965 252.522 144.112C252.181 143.259 251.882 142.277 251.626 141.168C251.541 140.741 251.455 140.315 251.37 139.888C251.37 139.547 251.37 139.163 251.37 138.736V67.44C251.37 66.928 251.37 66.416 251.37 65.904C251.455 65.3067 251.541 64.7093 251.626 64.112C251.711 63.088 251.967 62.064 252.394 61.04C253.162 58.9067 254.741 57.456 257.13 56.688C259.519 55.92 262.207 55.5787 265.194 55.664C267.242 55.7493 269.333 55.9627 271.466 56.304C273.685 56.6453 275.775 57.072 277.738 57.584C279.786 58.0107 281.621 58.48 283.242 58.992C284.863 59.504 286.186 59.9733 287.21 60.4ZM287.466 88.048C287.807 85.6587 287.509 83.6533 286.57 82.032C285.717 80.3253 284.479 78.96 282.858 77.936C281.237 76.8267 279.359 75.9733 277.226 75.376C275.178 74.7787 273.13 74.352 271.082 74.096C270.826 74.0107 270.399 73.968 269.802 73.968C269.29 73.968 268.693 73.968 268.01 73.968C268.01 76.6987 268.01 79.344 268.01 81.904C268.095 84.3787 268.095 87.0667 268.01 89.968V98.544C269.973 98.4587 272.021 98.2453 274.154 97.904C276.373 97.5627 278.421 97.008 280.298 96.24C282.175 95.472 283.754 94.448 285.034 93.168C286.399 91.888 287.21 90.1813 287.466 88.048ZM331.394 107.76C331.309 108.187 331.223 108.613 331.138 109.04C331.138 109.381 331.138 109.765 331.138 110.192L330.37 112.88C330.199 113.221 330.071 113.435 329.986 113.52L329.602 114.288C329.175 115.227 328.407 115.995 327.298 116.592C325.25 117.616 323.074 117.872 320.77 117.36C319.319 117.189 318.167 116.763 317.314 116.08C316.461 115.483 315.863 114.757 315.522 113.904C315.181 113.051 314.925 112.197 314.754 111.344C314.498 110.491 314.37 109.723 314.37 109.04V37.36C314.37 36.7627 314.37 36.2507 314.37 35.824C314.455 35.312 314.541 34.8427 314.626 34.416C314.711 33.8187 314.797 33.3067 314.882 32.88C315.053 32.4533 315.223 31.984 315.394 31.472C315.65 30.6187 316.119 29.936 316.802 29.424C317.826 28.656 318.807 28.2293 319.746 28.144C320.343 27.9733 320.898 27.888 321.41 27.888C321.922 27.8027 322.519 27.76 323.202 27.76C324.397 27.76 325.762 28.1013 327.298 28.784C328.493 29.4667 329.346 30.4053 329.858 31.6C330.711 33.3067 331.138 34.8853 331.138 36.336C331.223 37.1893 331.266 38.4693 331.266 40.176C331.351 41.8827 331.394 43.1627 331.394 44.016V44.528C331.565 47.2587 331.65 49.904 331.65 52.464C331.65 54.9387 331.607 57.6693 331.522 60.656C331.522 63.5573 331.479 66.3733 331.394 69.104C331.394 71.7493 331.394 74.3947 331.394 77.04V103.92C331.394 104.261 331.394 104.603 331.394 104.944C331.479 105.2 331.522 105.499 331.522 105.84C331.522 106.693 331.479 107.333 331.394 107.76ZM358.382 60.144C361.198 58.7787 364.142 57.7973 367.214 57.2C370.286 56.6027 373.315 56.4747 376.302 56.816C379.374 57.1573 382.318 57.968 385.134 59.248C388.035 60.528 390.681 62.32 393.07 64.624C395.033 66.5867 396.739 68.976 398.19 71.792C399.641 74.5227 400.707 77.2107 401.39 79.856C402.841 84.5493 403.054 89.2853 402.03 94.064C401.006 98.8427 399.257 103.28 396.782 107.376C395.587 109.253 394.094 110.96 392.302 112.496C390.595 113.947 388.761 115.141 386.798 116.08C384.238 117.275 381.465 118.085 378.478 118.512C375.491 119.024 372.59 119.152 369.774 118.896C364.654 118.64 360.131 117.36 356.206 115.056C352.366 112.752 349.251 109.808 346.862 106.224C344.558 102.64 343.022 98.5867 342.254 94.064C341.571 89.456 341.87 84.7627 343.15 79.984C344.515 74.864 346.478 70.7253 349.038 67.568C351.683 64.3253 354.798 61.8507 358.382 60.144ZM362.222 77.296C360.942 78.4907 359.961 79.984 359.278 81.776C358.595 83.568 358.169 85.4453 357.998 87.408C357.827 89.2853 357.955 91.2053 358.382 93.168C358.894 95.0453 359.662 96.752 360.686 98.288C361.539 99.568 363.075 100.635 365.294 101.488C367.513 102.341 369.817 102.853 372.206 103.024C374.937 103.195 377.326 102.469 379.374 100.848C381.422 99.1413 382.958 97.0507 383.982 94.576C385.091 92.1013 385.603 89.4133 385.518 86.512C385.433 83.6107 384.665 80.9653 383.214 78.576C382.19 76.8693 380.739 75.632 378.862 74.864C377.07 74.0107 375.15 73.584 373.102 73.584C371.139 73.4987 369.177 73.7973 367.214 74.48C365.251 75.0773 363.587 76.016 362.222 77.296ZM427.846 64.112C430.406 62.832 433.094 61.936 435.91 61.424C438.726 60.8267 441.499 60.6987 444.23 61.04C447.046 61.296 449.734 62.0213 452.294 63.216C454.854 64.3253 457.243 65.9467 459.462 68.08C461.681 70.2987 463.387 72.7307 464.582 75.376C465.777 78.0213 466.63 80.9653 467.142 84.208C467.483 86.4267 468.038 88.4747 468.806 90.352C469.574 92.2293 470.385 94.1067 471.238 95.984C472.177 97.8613 473.03 99.7387 473.798 101.616C474.651 103.493 475.334 105.456 475.846 107.504C476.273 109.467 476.102 111.387 475.334 113.264C474.651 115.056 473.201 116.165 470.982 116.592C469.702 116.848 468.465 116.763 467.27 116.336C466.161 115.824 465.137 115.141 464.198 114.288C463.259 113.349 462.406 112.368 461.638 111.344C460.955 110.235 460.315 109.211 459.718 108.272C457.755 110.832 455.622 112.837 453.318 114.288C451.014 115.653 448.241 116.549 444.998 116.976C442.267 117.317 439.665 117.403 437.19 117.232C434.715 117.061 432.07 116.592 429.254 115.824C425.585 114.885 422.555 113.264 420.166 110.96C417.862 108.571 416.07 105.84 414.79 102.768C413.595 99.6107 412.955 96.24 412.87 92.656C412.785 89.072 413.211 85.5307 414.15 82.032C415.345 77.424 417.137 73.6693 419.526 70.768C421.915 67.8667 424.689 65.648 427.846 64.112ZM431.046 79.088C429.851 80.2827 428.913 81.6907 428.23 83.312C427.547 84.9333 427.121 86.64 426.95 88.432C426.865 90.224 427.035 92.016 427.462 93.808C427.889 95.6 428.571 97.1787 429.51 98.544C430.363 99.7387 431.814 100.763 433.862 101.616C435.91 102.384 438.043 102.853 440.262 103.024C442.822 103.195 445.041 102.512 446.918 100.976C448.881 99.44 450.331 97.52 451.27 95.216C452.294 92.8267 452.763 90.3093 452.678 87.664C452.593 84.9333 451.867 82.4587 450.502 80.24C449.478 78.6187 448.113 77.424 446.406 76.656C444.785 75.888 443.035 75.504 441.158 75.504C439.281 75.4187 437.403 75.7173 435.526 76.4C433.734 76.9973 432.241 77.8933 431.046 79.088ZM526.431 28.528C528.052 28.1013 529.46 28.0587 530.655 28.4C531.935 28.656 533.002 29.2107 533.855 30.064C534.794 30.9173 535.476 31.984 535.903 33.264C536.415 34.544 536.671 35.952 536.671 37.488C536.756 41.7547 536.756 45.0827 536.671 47.472C536.671 49.8613 536.671 51.952 536.671 53.744V93.04C536.671 97.648 536.671 101.488 536.671 104.56C536.671 107.632 536.5 110.149 536.159 112.112C535.903 113.989 535.391 115.397 534.623 116.336C533.94 117.275 532.874 117.915 531.423 118.256C529.972 118.683 528.052 118.896 525.663 118.896C523.359 118.896 520.458 118.896 516.959 118.896C507.743 118.896 500.447 116.72 495.071 112.368C489.78 108.016 486.964 101.104 486.623 91.632C486.452 87.536 486.964 83.7813 488.159 80.368C489.354 76.9547 491.103 74.0533 493.407 71.664C495.796 69.1893 498.698 67.312 502.111 66.032C505.61 64.6667 509.578 64.0267 514.015 64.112H521.055V41.2C521.055 39.8347 521.055 38.512 521.055 37.232C521.055 35.8667 521.183 34.6293 521.439 33.52C521.695 32.3253 522.207 31.3013 522.975 30.448C523.743 29.5947 524.895 28.9547 526.431 28.528ZM504.159 99.568C505.951 102.043 509.194 103.408 513.887 103.664C514.826 103.749 515.722 103.792 516.575 103.792C517.428 103.707 518.196 103.579 518.879 103.408C519.647 103.323 520.372 103.195 521.055 103.024V79.344C518.068 78.832 515.338 78.5333 512.863 78.448C510.474 78.2773 508.084 79.1307 505.695 81.008C504.415 82.032 503.434 83.3547 502.751 84.976C502.068 86.512 501.684 88.176 501.599 89.968C501.514 91.6747 501.684 93.3813 502.111 95.088C502.538 96.7947 503.22 98.288 504.159 99.568Z" fill="#FF0000"/>
<path d="M77.4005 246.496C78.5098 248.971 78.5525 251.403 77.5285 253.792C76.5045 256.096 74.8832 258.229 72.6645 260.192C70.4458 262.155 67.8858 263.861 64.9845 265.312C62.1685 266.763 59.4805 267.787 56.9205 268.384C54.1045 268.981 51.1178 269.237 47.9605 269.152C44.8885 269.152 41.7738 268.768 38.6165 268C35.5445 267.317 32.5152 266.293 29.5285 264.928C26.6272 263.477 23.9392 261.728 21.4645 259.68C18.4778 257.205 16.1312 254.261 14.4245 250.848C12.8032 247.349 11.6085 243.637 10.8405 239.712C10.0725 235.787 9.64583 231.861 9.5605 227.936C9.5605 223.925 9.6885 220.171 9.9445 216.672C10.2005 213.515 10.8405 210.229 11.8645 206.816C12.8885 203.403 14.2965 200.075 16.0885 196.832C17.9658 193.504 20.1845 190.432 22.7445 187.616C25.3898 184.8 28.4618 182.411 31.9605 180.448C34.6058 178.912 37.5498 177.888 40.7925 177.376C44.1205 176.779 47.4485 176.651 50.7765 176.992C54.1898 177.248 57.3898 177.973 60.3765 179.168C63.4485 180.277 66.0512 181.813 68.1845 183.776C69.5498 184.971 70.9578 186.635 72.4085 188.768C73.9445 190.901 75.0538 193.077 75.7365 195.296C76.4192 197.515 76.4192 199.605 75.7365 201.568C75.1392 203.445 73.4325 204.725 70.6165 205.408C69.4218 205.749 68.3552 205.835 67.4165 205.664C66.4778 205.408 65.6245 205.024 64.8565 204.512C64.0885 203.915 63.3632 203.232 62.6805 202.464C61.9978 201.696 61.3578 200.928 60.7605 200.16C58.7125 197.685 56.3232 196.021 53.5925 195.168C50.8618 194.229 48.1312 194.016 45.4005 194.528C42.7552 194.955 40.2378 196.064 37.8485 197.856C35.5445 199.563 33.7525 201.781 32.4725 204.512C31.1072 207.413 29.9978 210.613 29.1445 214.112C28.3765 217.525 27.9498 221.024 27.8645 224.608C27.7792 228.107 28.0778 231.52 28.7605 234.848C29.5285 238.176 30.8085 241.12 32.6005 243.68C33.9658 245.728 35.6298 247.392 37.5925 248.672C39.6405 249.952 41.8165 250.848 44.1205 251.36C46.4245 251.872 48.7285 251.957 51.0325 251.616C53.4218 251.275 55.7258 250.507 57.9445 249.312C58.6272 248.971 59.3525 248.501 60.1205 247.904C60.9738 247.221 61.8272 246.539 62.6805 245.856C63.5338 245.173 64.3872 244.533 65.2405 243.936C66.1792 243.339 67.1605 242.912 68.1845 242.656C69.7205 242.144 71.3845 242.187 73.1765 242.784C75.0538 243.381 76.4618 244.619 77.4005 246.496ZM88.6855 222.688C88.6855 221.664 88.6855 220.512 88.6855 219.232C88.6855 217.867 88.7282 216.501 88.8135 215.136C88.8988 213.685 89.0268 212.32 89.1975 211.04C89.4535 209.675 89.7948 208.48 90.2215 207.456C90.9042 205.92 91.9708 204.896 93.4215 204.384C94.8722 203.787 96.4508 203.531 98.1575 203.616C99.9495 203.616 101.358 203.915 102.382 204.512C103.406 205.109 104.174 205.92 104.686 206.944C105.198 207.883 105.496 208.992 105.582 210.272C105.752 211.467 105.838 212.747 105.838 214.112C106.606 212.747 107.63 211.637 108.91 210.784C110.275 209.931 111.64 209.248 113.006 208.736C114.371 208.224 115.608 207.883 116.718 207.712C117.827 207.456 118.467 207.328 118.638 207.328C120.771 207.157 122.691 207.115 124.398 207.2C126.19 207.285 128.152 207.669 130.286 208.352C131.651 208.864 133.059 209.589 134.51 210.528C135.96 211.381 137.24 212.405 138.35 213.6C139.459 214.795 140.184 216.117 140.526 217.568C140.952 218.933 140.782 220.384 140.014 221.92C138.819 224.053 137.496 225.12 136.046 225.12C134.595 225.035 133.016 224.779 131.31 224.352C130.371 224.181 129.262 223.797 127.982 223.2C126.702 222.603 125.592 222.219 124.654 222.048C121.752 221.621 119.192 221.835 116.974 222.688C114.755 223.541 112.835 224.565 111.214 225.76C109.336 227.211 107.715 228.875 106.35 230.752V249.184C106.35 251.488 106.307 253.877 106.222 256.352C106.222 258.827 105.88 261.088 105.198 263.136C104.6 265.099 103.534 266.72 101.998 268C100.547 269.195 98.4135 269.707 95.5975 269.536C94.0615 269.451 92.6962 268.725 91.5015 267.36C90.3068 265.909 89.5815 264.501 89.3255 263.136C89.1548 261.856 89.0268 260.32 88.9415 258.528C88.8562 256.736 88.7708 254.859 88.6855 252.896C88.6855 250.933 88.6855 248.971 88.6855 247.008C88.6855 244.96 88.6855 243.083 88.6855 241.376V222.688ZM162.07 210.144C164.886 208.779 167.83 207.797 170.902 207.2C173.974 206.603 177.003 206.475 179.99 206.816C183.062 207.157 186.006 207.968 188.822 209.248C191.723 210.528 194.368 212.32 196.758 214.624C198.72 216.587 200.427 218.976 201.878 221.792C203.328 224.523 204.395 227.211 205.077 229.856C206.528 234.549 206.742 239.285 205.718 244.064C204.694 248.843 202.944 253.28 200.47 257.376C199.275 259.253 197.782 260.96 195.99 262.496C194.283 263.947 192.448 265.141 190.486 266.08C187.926 267.275 185.152 268.085 182.166 268.512C179.179 269.024 176.278 269.152 173.462 268.896C168.342 268.64 163.819 267.36 159.894 265.056C156.054 262.752 152.939 259.808 150.55 256.224C148.246 252.64 146.71 248.587 145.942 244.064C145.259 239.456 145.558 234.763 146.838 229.984C148.203 224.864 150.166 220.725 152.726 217.568C155.371 214.325 158.486 211.851 162.07 210.144ZM165.91 227.296C164.63 228.491 163.648 229.984 162.966 231.776C162.283 233.568 161.856 235.445 161.686 237.408C161.515 239.285 161.643 241.205 162.07 243.168C162.582 245.045 163.35 246.752 164.374 248.288C165.227 249.568 166.763 250.635 168.982 251.488C171.2 252.341 173.504 252.853 175.894 253.024C178.624 253.195 181.014 252.469 183.062 250.848C185.11 249.141 186.646 247.051 187.67 244.576C188.779 242.101 189.291 239.413 189.206 236.512C189.12 233.611 188.352 230.965 186.902 228.576C185.878 226.869 184.427 225.632 182.55 224.864C180.758 224.011 178.838 223.584 176.79 223.584C174.827 223.499 172.864 223.797 170.902 224.48C168.939 225.077 167.275 226.016 165.91 227.296ZM252.398 210.4C254.872 211.424 257.134 212.917 259.182 214.88C261.23 216.757 262.979 218.933 264.43 221.408C265.966 223.883 267.118 226.571 267.886 229.472C268.739 232.288 269.166 235.147 269.166 238.048C269.251 242.4 268.227 246.496 266.094 250.336C264.046 254.176 260.675 257.12 255.982 259.168C252.398 260.619 248.686 261.728 244.846 262.496C241.091 263.179 237.166 263.648 233.07 263.904V287.328C233.07 287.84 232.984 288.309 232.814 288.736C232.728 289.163 232.686 289.589 232.686 290.016C232.515 290.869 232.302 291.637 232.046 292.32C231.875 293.003 231.619 293.728 231.278 294.496C230.936 295.008 230.595 295.477 230.253 295.904C229.912 296.331 229.528 296.757 229.102 297.184C227.054 298.208 224.92 298.421 222.702 297.824C221.336 297.739 220.227 297.312 219.374 296.544C218.606 295.776 218.051 294.965 217.71 294.112C217.368 293.259 217.07 292.277 216.814 291.168C216.728 290.741 216.643 290.315 216.558 289.888C216.558 289.547 216.558 289.163 216.558 288.736V217.44C216.558 216.928 216.558 216.416 216.558 215.904C216.643 215.307 216.728 214.709 216.814 214.112C216.899 213.088 217.155 212.064 217.582 211.04C218.35 208.907 219.928 207.456 222.318 206.688C224.707 205.92 227.395 205.579 230.382 205.664C232.43 205.749 234.52 205.963 236.654 206.304C238.872 206.645 240.963 207.072 242.926 207.584C244.974 208.011 246.808 208.48 248.43 208.992C250.051 209.504 251.374 209.973 252.398 210.4ZM252.654 238.048C252.995 235.659 252.696 233.653 251.758 232.032C250.904 230.325 249.667 228.96 248.046 227.936C246.424 226.827 244.547 225.973 242.414 225.376C240.366 224.779 238.318 224.352 236.27 224.096C236.014 224.011 235.587 223.968 234.99 223.968C234.478 223.968 233.88 223.968 233.198 223.968C233.198 226.699 233.198 229.344 233.198 231.904C233.283 234.379 233.283 237.067 233.198 239.968V248.544C235.16 248.459 237.208 248.245 239.342 247.904C241.56 247.563 243.608 247.008 245.486 246.24C247.363 245.472 248.942 244.448 250.222 243.168C251.587 241.888 252.398 240.181 252.654 238.048ZM341.736 271.2C340.797 271.029 339.858 270.859 338.92 270.688C337.981 270.603 337.042 270.432 336.104 270.176C332.69 269.493 329.405 268.256 326.248 266.464C323.176 264.672 320.872 262.112 319.336 258.784C317.97 256.053 317.032 253.109 316.52 249.952C316.093 246.795 316.008 243.723 316.264 240.736C316.434 237.749 317.032 234.72 318.056 231.648C319.165 228.576 320.786 225.973 322.92 223.84C323.09 223.669 323.432 223.371 323.944 222.944C324.456 222.432 325.01 221.92 325.608 221.408C326.205 220.896 326.76 220.469 327.272 220.128C327.784 219.701 328.082 219.531 328.168 219.616C326.461 217.483 325.096 215.136 324.072 212.576C323.133 210.016 322.536 207.413 322.28 204.768C322.024 202.037 322.024 199.349 322.28 196.704C322.621 193.973 323.218 191.413 324.072 189.024C325.437 185.013 327.57 181.813 330.472 179.424C333.373 177.035 336.658 175.413 340.328 174.56C343.997 173.621 347.794 173.408 351.72 173.92C355.645 174.347 359.272 175.456 362.6 177.248C366.44 179.125 369.213 181.941 370.92 185.696C372.712 189.365 373.778 193.248 374.12 197.344C374.29 199.477 374.333 201.653 374.248 203.872C374.248 206.091 373.992 208.267 373.479 210.4C372.968 212.533 372.157 214.539 371.048 216.416C369.938 218.293 368.402 219.915 366.44 221.28C367.208 221.963 367.976 222.773 368.744 223.712C369.597 224.565 370.237 225.333 370.664 226.016C371.602 227.211 372.498 228.789 373.352 230.752L376.168 236.768C376.082 236.597 376.168 236.299 376.424 235.872C376.765 235.36 377.149 234.848 377.576 234.336C378.002 233.824 378.386 233.355 378.728 232.928C379.154 232.416 379.41 232.117 379.496 232.032C380.178 231.093 380.989 230.112 381.928 229.088C382.866 228.064 383.848 227.168 384.872 226.4C385.981 225.547 387.133 224.949 388.328 224.608C389.522 224.267 390.76 224.267 392.04 224.608C393.234 224.949 394.002 225.547 394.344 226.4C394.77 227.168 394.898 228.107 394.728 229.216C394.557 230.24 394.173 231.349 393.576 232.544C393.064 233.653 392.466 234.763 391.784 235.872C391.186 236.896 390.589 237.835 389.992 238.688C389.394 239.541 388.925 240.181 388.584 240.608C387.816 241.803 387.048 242.955 386.28 244.064C385.597 245.088 384.872 246.155 384.104 247.264C384.018 247.435 383.634 247.904 382.951 248.672C382.354 249.355 382.098 249.781 382.184 249.952C382.696 250.976 383.506 252.555 384.616 254.688C385.81 256.736 386.749 258.869 387.432 261.088C388.114 263.307 388.328 265.397 388.072 267.36C387.816 269.237 386.578 270.475 384.36 271.072C382.738 271.499 381.074 271.285 379.368 270.432C377.746 269.579 376.424 268.555 375.4 267.36C375.229 267.189 374.888 266.763 374.376 266.08C373.949 265.397 373.48 264.672 372.968 263.904C372.541 263.051 372.157 262.24 371.816 261.472C371.56 260.704 371.517 260.149 371.688 259.808C370.066 261.771 368.36 263.563 366.568 265.184C364.861 266.72 362.856 267.957 360.552 268.896C357.565 270.091 354.493 270.816 351.336 271.072C348.178 271.413 344.978 271.456 341.736 271.2ZM350.824 257.504C352.104 257.333 353.469 256.992 354.92 256.48C356.37 255.883 357.778 255.157 359.144 254.304C360.509 253.451 361.704 252.512 362.728 251.488C363.837 250.379 364.648 249.184 365.16 247.904C365.33 247.307 365.288 246.624 365.032 245.856C364.776 245.003 364.434 244.149 364.008 243.296C363.581 242.443 363.154 241.632 362.728 240.864C362.301 240.096 361.96 239.456 361.704 238.944C361.021 237.323 360.125 235.701 359.016 234.08C357.992 232.459 356.754 231.221 355.304 230.368C352.146 228.491 348.818 227.765 345.319 228.192C341.992 228.533 339.048 229.813 336.488 232.032C334.013 234.251 332.648 237.195 332.392 240.864C332.221 242.827 332.264 244.917 332.52 247.136C332.776 249.269 333.458 251.104 334.568 252.64C336.189 254.688 338.578 256.139 341.736 256.992C344.893 257.76 347.922 257.931 350.824 257.504ZM350.568 213.728C353.384 213.557 355.432 212.576 356.712 210.784C357.992 208.992 358.76 206.901 359.016 204.512C359.272 203.232 359.442 201.995 359.528 200.8C359.613 199.52 359.57 198.283 359.4 197.088C359.229 195.893 358.845 194.784 358.248 193.76C357.65 192.651 356.712 191.669 355.432 190.816C353.64 189.536 351.549 188.811 349.16 188.64C346.77 188.469 344.594 189.024 342.632 190.304C341.01 191.243 339.816 192.395 339.048 193.76C338.28 195.04 337.81 196.533 337.64 198.24C337.384 200.288 337.426 202.336 337.768 204.384C338.194 206.347 338.92 208.096 339.944 209.632C340.968 211.083 342.333 212.235 344.04 213.088C345.832 213.856 348.008 214.069 350.568 213.728Z" fill="black"/>
</svg>
